<?xml version="1.0" encoding="UTF-8" standalone="no"?><!DOCTYPE svg PUBLIC "-//W3C//DTD SVG 1.1//EN" "http://www.w3.org/Graphics/SVG/1.1/DTD/svg11.dtd"><svg width="100%" height="100%" viewBox="0 0 307 147" version="1.1" xmlns="http://www.w3.org/2000/svg" xmlns:xlink="http://www.w3.org/1999/xlink" xml:space="preserve" style="fill-rule:evenodd;clip-rule:evenodd;stroke-linejoin:round;stroke-miterlimit:1.41421;"><rect x="0" y="0" width="306.829" height="146.009" style="fill:none;"/><path d="M36.512,81.959c7.307,0 13.458,1.999 18.455,5.996c4.996,3.998 7.494,8.907 7.494,14.73c0,5.822 -2.498,10.732 -7.494,14.729c-4.997,3.997 -11.148,5.996 -18.455,5.996l-8.382,0l0,-8.016l8.221,0c4.405,0 8.126,-1.228 11.161,-3.683c3.036,-2.455 4.553,-5.464 4.553,-9.026c0,-3.65 -1.531,-6.692 -4.593,-9.125c-3.063,-2.433 -6.85,-3.649 -11.363,-3.649l-11.847,0l0.081,41.906l-9.993,-0.065l0.08,-49.793l22.082,0Zm183.985,49.793l0.08,-8.016l9.994,0c2.041,0 3.76,-0.565 5.157,-1.695c1.397,-1.129 2.096,-2.52 2.096,-4.171c0,-1.868 -1.478,-3.932 -4.433,-6.191c-4.19,-3.216 -6.957,-5.67 -8.301,-7.365c-3.008,-3.824 -4.513,-8.494 -4.513,-14.012l9.994,0c0,4.649 1.477,8.624 4.432,11.926c2.74,2.39 5.48,4.78 8.22,7.17c3.009,2.693 4.513,5.518 4.513,8.472c0,3.911 -1.665,7.213 -4.996,9.907c-3.332,2.693 -7.388,4.04 -12.169,4.04l-10.074,-0.065Zm-128.62,-41.646l20.63,0l0,33.304l-9.912,0l0.08,-25.027l-10.798,-0.065c-2.902,0 -5.333,0.815 -7.294,2.444c-1.961,1.629 -2.941,3.661 -2.941,6.094c0,2.389 0.994,4.41 2.982,6.061c1.987,1.651 4.405,2.477 7.253,2.477l7.011,0l0,8.016l-6.931,0c-5.749,0 -10.557,-1.586 -14.425,-4.758c-3.869,-3.172 -5.803,-7.104 -5.803,-11.796c0,-4.649 1.961,-8.603 5.883,-11.862c3.922,-3.259 8.677,-4.888 14.265,-4.888Zm53.511,0.196l0,8.081l-8.623,0c-1.451,0 -2.673,0.402 -3.667,1.206c-0.994,0.804 -1.491,1.792 -1.491,2.965l0,20.856l-10.235,0l0,-20.921c0.376,-3.476 2.001,-6.376 4.876,-8.701c2.874,-2.324 6.38,-3.486 10.517,-3.486l8.623,0Zm28.287,-0.196l20.63,0l0,33.304l-9.912,0l0.081,-25.027l-10.799,-0.065c-2.902,0 -5.333,0.815 -7.294,2.444c-1.961,1.629 -2.941,3.661 -2.941,6.094c0,2.389 0.994,4.41 2.982,6.061c1.987,1.651 4.405,2.477 7.253,2.477l7.011,0l0,8.016l-6.931,0c-5.749,0 -10.557,-1.586 -14.425,-4.758c-3.869,-3.172 -5.803,-7.104 -5.803,-11.796c0,-4.649 1.961,-8.603 5.883,-11.862c3.922,-3.259 8.677,-4.888 14.265,-4.888Zm29.576,2.998l9.993,0l0,30.306l-10.074,0l0.081,-30.306Zm93.644,13.752c0,-4.649 -1.987,-8.581 -5.963,-11.797c-3.976,-3.215 -8.838,-4.823 -14.587,-4.823c-5.748,0 -10.611,1.608 -14.586,4.823c-3.976,3.216 -5.964,7.148 -5.964,11.797c0,4.649 1.974,8.57 5.923,11.764c3.949,3.193 8.825,4.79 14.627,4.79c5.749,0 10.611,-1.586 14.587,-4.758c3.976,-3.172 5.963,-7.104 5.963,-11.796Zm-10.234,-0.326l0.241,0.326c0,2.433 -1.007,4.464 -3.022,6.094c-2.014,1.629 -4.526,2.444 -7.535,2.444c-2.955,0 -5.453,-0.826 -7.495,-2.477c-2.041,-1.651 -3.062,-3.672 -3.062,-6.061c0,-2.39 1.021,-4.41 3.062,-6.061c2.042,-1.651 4.54,-2.477 7.495,-2.477c2.955,0 5.413,0.793 7.374,2.379c1.961,1.586 2.942,3.53 2.942,5.833Zm-83.41,-24.571l9.993,0l-0.161,7.952l-9.913,0l0.081,-7.952Zm-84.822,-14.77l0,3.372l4.069,-0.027c1.938,0 3.563,0.536 4.877,1.607c1.313,1.071 1.969,2.38 1.969,3.925l0,7.876l-3.907,0l-0.032,-7.876c0,-0.615 -0.28,-1.141 -0.84,-1.581c-0.56,-0.439 -1.238,-0.658 -2.034,-0.658l-4.134,0l-0.032,10.115l-3.972,0l0.032,-16.753l4.004,0Zm30.84,10.062c0,-1.879 -0.797,-3.468 -2.39,-4.767c-1.593,-1.3 -3.541,-1.95 -5.845,-1.95c-2.303,0 -4.252,0.65 -5.845,1.95c-1.593,1.299 -2.389,2.888 -2.389,4.767c0,1.879 0.791,3.464 2.373,4.755c1.583,1.29 3.536,1.936 5.861,1.936c2.304,0 4.252,-0.641 5.845,-1.923c1.593,-1.282 2.39,-2.871 2.39,-4.768Zm7.492,-10.141l0.064,3.451l6.879,0l0,3.266l-6.879,0l0,4.504c0,0.668 0.259,1.229 0.775,1.686c0.517,0.457 1.163,0.685 1.938,0.685l4.133,0l0,3.24l-4.133,0c-1.895,0 -3.493,-0.549 -4.796,-1.647c-1.302,-1.097 -1.953,-2.436 -1.953,-4.016l0,-11.169l3.972,0Zm26.609,16.832l-8.235,0c-2.303,0 -4.236,-0.646 -5.796,-1.936c-1.561,-1.291 -2.342,-2.876 -2.342,-4.755c0,-1.879 0.786,-3.468 2.358,-4.767c1.571,-1.3 3.498,-1.95 5.78,-1.95l8.235,-0.052l0,3.292l-4.101,5.69l-4.005,0l4.005,-5.637l-4.166,-0.026c-1.163,0 -2.137,0.329 -2.923,0.987c-0.785,0.659 -1.178,1.48 -1.178,2.463c0,0.966 0.398,1.783 1.195,2.45c0.796,0.667 1.765,1.001 2.906,1.001l8.299,0l-0.032,3.24Zm3.584,-16.753l4.005,0l0,16.753l-4.037,0l0.032,-16.753Zm-41.786,9.931l0.097,0.131c0,0.984 -0.404,1.805 -1.211,2.463c-0.808,0.659 -1.814,0.988 -3.02,0.988c-1.184,0 -2.185,-0.334 -3.003,-1.001c-0.818,-0.667 -1.227,-1.484 -1.227,-2.45c0,-0.966 0.409,-1.782 1.227,-2.449c0.818,-0.668 1.819,-1.001 3.003,-1.001c1.184,0 2.169,0.32 2.955,0.961c0.786,0.641 1.179,1.427 1.179,2.358Zm-44.427,-13.15c13.928,-11.48 31.77,-18.378 51.21,-18.378c19.124,0 36.7,6.675 50.525,17.819c0,0 1.672,1.534 1.672,2.714c0,1.66 -1.348,3.008 -3.008,3.008c-0.777,0 -2.064,-0.779 -2.064,-0.779c-12.8,-10.756 -29.224,-17.222 -47.125,-17.222c-17.9,0 -34.324,6.466 -47.124,17.222c0,0 -2.088,1.622 -3.801,0.583c-1.427,-0.865 -1.915,-2.646 -1.125,-4.061c0.141,-0.252 0.562,-0.677 0.84,-0.906Zm-2.28,-36.269l7.32,8.264l10.123,-4.408l-5.598,9.516l7.32,8.264l-10.78,-2.383l-5.598,9.516l-1.064,-10.989l-10.78,-2.383l10.122,-4.408l-1.065,-10.989Zm106.75,0l-7.32,8.264l-10.122,-4.408l5.598,9.516l-7.321,8.264l10.78,-2.383l5.598,9.516l1.065,-10.989l10.78,-2.383l-10.122,-4.408l1.064,-10.989Zm-53.375,-13.509l3.412,10.5l11.04,0l-8.932,6.489l3.412,10.5l-8.932,-6.49l-8.932,6.49l3.412,-10.5l-8.932,-6.489l11.04,0l3.412,-10.5Z" style="fill:#ddb653;stroke:#64573d;stroke-width:0.24px;"/></svg>